# xmcd CD database file
#
# Track frame offsets:
#	150
#	18300
#	36795
#
# Disc length: 729 seconds
#
# Revision: 2
# Processed by: cddbd v1.5.2PL0 Copyright (c) Steve Scherf et al.
# Submitted via: CDex 1.82
#
DISCID=1902d703
DTITLE=Maki Goto - Uwasa no SEXY GUY
DYEAR=2003
DGENRE=Jpop
TTITLE0=Uwasa no SEXY GUY
TTITLE1=Kare, Ryokouchuu Nari 
TTITLE2=Uwasa no SEXY GUY (Instrumental)
EXTD=YEAR: 2003
EXTT0=
EXTT1=
EXTT2=
PLAYORDER=
